<svg width="20" height="20" viewBox="0 0 20 20" fill="none" xmlns="http://www.w3.org/2000/svg">
<path fill-rule="evenodd" clip-rule="evenodd" d="M10.0004 19.6141C15.3023 19.6141 19.6004 15.316 19.6004 10.0141C19.6004 4.71213 15.3023 0.414062 10.0004 0.414062C4.69846 0.414062 0.400391 4.71213 0.400391 10.0141C0.400391 15.316 4.69846 19.6141 10.0004 19.6141ZM14.4489 8.46259C14.9175 7.99396 14.9175 7.23416 14.4489 6.76553C13.9803 6.29691 13.2205 6.29691 12.7519 6.76553L8.80039 10.717L7.24892 9.16553C6.78029 8.69691 6.02049 8.69691 5.55186 9.16553C5.08323 9.63416 5.08323 10.394 5.55186 10.8626L7.95186 13.2626C8.42049 13.7312 9.18029 13.7312 9.64892 13.2626L14.4489 8.46259Z" fill="#00CFFF"/>
</svg>
