<svg width="81" height="81" viewBox="0 0 81 81" fill="none" xmlns="http://www.w3.org/2000/svg">
<path fill-rule="evenodd" clip-rule="evenodd" d="M40.528 16.8776C36.8461 16.8776 33.8613 19.8624 33.8613 23.5443C33.8613 27.2262 36.8461 30.2109 40.528 30.2109C44.2099 30.2109 47.1947 27.2262 47.1947 23.5443C47.1947 19.8624 44.2099 16.8776 40.528 16.8776ZM27.1947 23.5443C27.1947 16.1805 33.1642 10.2109 40.528 10.2109C47.8918 10.2109 53.8613 16.1805 53.8613 23.5443C53.8613 30.9081 47.8918 36.8776 40.528 36.8776C33.1642 36.8776 27.1947 30.9081 27.1947 23.5443ZM17.1947 30.2109C15.3537 30.2109 13.8613 31.7033 13.8613 33.5443C13.8613 35.3852 15.3537 36.8776 17.1947 36.8776C19.0356 36.8776 20.528 35.3852 20.528 33.5443C20.528 31.7033 19.0356 30.2109 17.1947 30.2109ZM7.19466 33.5443C7.19466 28.0214 11.6718 23.5443 17.1947 23.5443C22.7175 23.5443 27.1947 28.0214 27.1947 33.5443C27.1947 39.0671 22.7175 43.5443 17.1947 43.5443C11.6718 43.5443 7.19466 39.0671 7.19466 33.5443ZM63.8613 30.2109C62.0204 30.2109 60.528 31.7033 60.528 33.5443C60.528 35.3852 62.0204 36.8776 63.8613 36.8776C65.7023 36.8776 67.1947 35.3852 67.1947 33.5443C67.1947 31.7033 65.7023 30.2109 63.8613 30.2109ZM53.8613 33.5443C53.8613 28.0214 58.3385 23.5443 63.8613 23.5443C69.3842 23.5443 73.8613 28.0214 73.8613 33.5443C73.8613 39.0671 69.3842 43.5443 63.8613 43.5443C58.3385 43.5443 53.8613 39.0671 53.8613 33.5443ZM40.528 46.8776C34.9194 46.8776 30.1119 50.3416 28.1434 55.2593C27.5324 56.7858 27.1947 58.4548 27.1947 60.2109V63.5443H53.8613V60.2109C53.8613 58.4548 53.5236 56.7858 52.9125 55.2593C50.9441 50.3416 46.1366 46.8776 40.528 46.8776ZM60.528 63.5443H70.528V60.2109C70.528 56.529 67.5432 53.5443 63.8613 53.5443C62.3411 53.5443 60.9403 54.0512 59.8171 54.9101C60.2809 56.6009 60.528 58.3791 60.528 60.2109V63.5443ZM56.9567 48.8031C53.3462 43.6128 47.337 40.2109 40.528 40.2109C33.719 40.2109 27.7098 43.6128 24.0993 48.8031C22.086 47.5823 19.7223 46.8776 17.1947 46.8776C9.83086 46.8776 3.86133 52.8471 3.86133 60.2109V66.8776C3.86133 68.7186 5.35371 70.2109 7.19466 70.2109H73.8613C75.7023 70.2109 77.1947 68.7186 77.1947 66.8776V60.2109C77.1947 52.8471 71.2251 46.8776 63.8613 46.8776C61.3337 46.8776 58.97 47.5823 56.9567 48.8031ZM21.2389 54.9101C20.1157 54.0512 18.7149 53.5443 17.1947 53.5443C13.5128 53.5443 10.528 56.529 10.528 60.2109V63.5443H20.528V60.2109C20.528 58.3791 20.7751 56.6009 21.2389 54.9101Z" fill="#476572"/>
</svg>
