<svg width="17" height="16" viewBox="0 0 17 16" fill="none" xmlns="http://www.w3.org/2000/svg">
<path fill-rule="evenodd" clip-rule="evenodd" d="M7.63216 2.60303C7.63216 1.9018 8.20062 1.33334 8.90185 1.33334H8.9655C10.0701 1.33334 10.9655 2.22877 10.9655 3.33334V6.00001L13.4748 6.00001C14.9615 6.00001 15.9285 7.56464 15.2636 8.89444L12.9303 13.5611C12.5915 14.2387 11.899 14.6667 11.1414 14.6667L8.46297 14.6667C8.29945 14.6667 8.13654 14.6466 7.9779 14.607L5.55009 14H4.29883C3.19426 14 2.29883 13.1046 2.29883 12L2.29883 8.00001C2.29883 6.89544 3.19426 6.00001 4.29883 6.00001H5.71982L7.33902 3.5712C7.53016 3.28449 7.63216 2.94761 7.63216 2.60303ZM4.96549 7.33334H4.29883C3.93064 7.33334 3.63216 7.63182 3.63216 8.00001L3.63216 12C3.63216 12.3682 3.93064 12.6667 4.29883 12.6667H4.96549L4.96549 7.33334ZM6.29883 12.8128L6.29883 7.53519L8.44842 4.3108C8.7738 3.82273 8.95273 3.25226 8.96484 2.66668C9.33303 2.66668 9.63216 2.96515 9.63216 3.33334V6.00001H8.9655C8.5973 6.00001 8.29883 6.29849 8.29883 6.66668C8.29883 7.03487 8.5973 7.33334 8.9655 7.33334L13.4748 7.33334C13.9704 7.33334 14.2927 7.85489 14.0711 8.29815L11.7377 12.9648C11.6248 13.1907 11.394 13.3333 11.1414 13.3333L8.46297 13.3333C8.40846 13.3333 8.35416 13.3267 8.30128 13.3134L6.29883 12.8128Z" fill="#283C45"/>
</svg>
