<svg width="15" height="12" viewBox="0 0 15 12" fill="none" xmlns="http://www.w3.org/2000/svg">
<path fill-rule="evenodd" clip-rule="evenodd" d="M2.30685 5.99997C3.13066 8.33102 5.35407 9.99999 7.96564 9.99999C10.5772 9.99999 12.8006 8.33104 13.6244 6.00001C12.8006 3.66896 10.5772 1.99999 7.96562 1.99999C5.35407 1.99999 3.13067 3.66894 2.30685 5.99997ZM0.968134 5.8002C1.90241 2.8256 4.68102 0.666656 7.96562 0.666656C11.2502 0.666656 14.0289 2.82563 14.9631 5.80025C15.004 5.9303 15.004 6.06974 14.9631 6.19978C14.0288 9.17438 11.2502 11.3333 7.96564 11.3333C4.68102 11.3333 1.9024 9.17435 0.968133 6.19973C0.927288 6.06968 0.927289 5.93024 0.968134 5.8002ZM7.96533 4.66666C7.22895 4.66666 6.632 5.26361 6.632 5.99999C6.632 6.73637 7.22895 7.33332 7.96533 7.33332C8.70171 7.33332 9.29867 6.73637 9.29867 5.99999C9.29867 5.26361 8.70171 4.66666 7.96533 4.66666ZM5.29867 5.99999C5.29867 4.52723 6.49257 3.33332 7.96533 3.33332C9.43809 3.33332 10.632 4.52723 10.632 5.99999C10.632 7.47275 9.43809 8.66666 7.96533 8.66666C6.49257 8.66666 5.29867 7.47275 5.29867 5.99999Z" fill="#283C45"/>
</svg>
