<svg xmlns="http://www.w3.org/2000/svg" width="13.775" height="13.28" viewBox="0 0 13.775 13.28">
  <g transform="translate(0 0)">
    <g>
      <g>
        <path d="M-77.439,581.2a.806.806,0,0,1,.815-.4c.959.018,1.918.006,2.877.006a.627.627,0,0,1,.706.455c.084-.009.095-.086.124-.141q.8-1.478,1.6-2.958a.969.969,0,0,0,.118-.557c-.052-.629-.1-1.259-.152-1.888a.244.244,0,0,1,.1-.227,2.41,2.41,0,0,1,.6-.313h.536a2.016,2.016,0,0,1,.817.5,3.172,3.172,0,0,1,.847,2.431c-.031.436-.116.868-.187,1.3-.028.168,0,.229.193.227.922-.01,1.843-.008,2.765,0a1.418,1.418,0,0,1,1.278,2.171c-.028.05-.085.1-.025.156a1.965,1.965,0,0,1,.384.758v.446a1.715,1.715,0,0,1-.55.86c-.105.07-.116.134-.082.255a1.385,1.385,0,0,1-.649,1.608.192.192,0,0,0-.12.221,1.4,1.4,0,0,1-1.427,1.592c-1.51,0-3.021,0-4.531.008a2.492,2.492,0,0,1-1.517-.43c-.125-.09-.161-.037-.14.083a.658.658,0,0,1-.359.712h-3.616a.8.8,0,0,1-.4-.446Zm12.043.771c.087-.066.153-.112.214-.163a.957.957,0,0,0,.442-.76.861.861,0,0,0-.911-.84q-1.741-.006-3.481,0c-.164,0-.2-.045-.176-.2.1-.608.222-1.214.283-1.827a2.446,2.446,0,0,0-.927-2.306.71.71,0,0,0-.634-.1c-.129.027-.179.091-.166.234.046.518.077,1.038.114,1.556a1.485,1.485,0,0,1-.162.84c-.422.776-.837,1.556-1.26,2.332A2.913,2.913,0,0,1-73,582.013c-.079.047-.066.124-.066.2,0,1.294,0,2.587-.009,3.881,0,.27-.015.53.328.616.06.015.105.08.16.118a1.544,1.544,0,0,0,.871.308q2.454.012,4.909,0A.856.856,0,0,0-66,586.12a1.717,1.717,0,0,0-.247-.551c.439-.058.847-.135,1-.6a1.047,1.047,0,0,0-.323-1.114c.568-.121.9-.434.938-.862C-64.587,582.513-64.832,582.178-65.4,581.974Zm-11.467,2.457c0,.951,0,1.9,0,2.854,0,.136.009.219.185.218.966-.007,1.933-.005,2.9,0,.136,0,.179-.042.179-.179q-.006-2.865,0-5.73c0-.171-.062-.212-.222-.211q-1.416.009-2.832,0c-.172,0-.211.055-.21.217C-76.86,582.544-76.863,583.488-76.863,584.432Z" transform="translate(77.629 -574.988)" fill="#65696a"/>
        <path d="M-75.731,585.958h-3.616a.19.19,0,0,1-.1-.026.989.989,0,0,1-.487-.554.193.193,0,0,1-.009-.056v-6.428a.19.19,0,0,1,.024-.093,1,1,0,0,1,.985-.5c.679.013,1.37.011,2.039.008l.835,0a.794.794,0,0,1,.727.3l.734-1.358.8-1.482a.783.783,0,0,0,.1-.451c-.023-.272-.044-.545-.065-.817-.028-.357-.056-.714-.087-1.071a.431.431,0,0,1,.163-.387,1.639,1.639,0,0,1,.479-.27c.055-.023.11-.046.164-.072a.191.191,0,0,1,.082-.019h.536a.188.188,0,0,1,.068.012,2.206,2.206,0,0,1,.891.555,3.359,3.359,0,0,1,.9,2.572c-.026.359-.087.717-.146,1.063-.014.085-.029.17-.043.255v.006h0c.956-.011,1.93-.008,2.768,0a1.671,1.671,0,0,1,1.464.792,1.665,1.665,0,0,1-.018,1.655,1.906,1.906,0,0,1,.322.634c.015.042.03.085.046.127a.189.189,0,0,1,.012.067v.446a.189.189,0,0,1-.015.073l-.042.1a1.686,1.686,0,0,1-.578.842l-.013.009c0,.008,0,.02.009.037a1.569,1.569,0,0,1-.734,1.822l-.031.02s0,.01,0,.018a1.616,1.616,0,0,1-.39,1.272,1.622,1.622,0,0,1-1.226.531l-1.925,0q-1.3,0-2.606.005h-.016a2.758,2.758,0,0,1-1.441-.354.866.866,0,0,1-.459.69A.189.189,0,0,1-75.731,585.958Zm-3.563-.38h3.506a.453.453,0,0,0,.229-.49.28.28,0,0,1,.105-.316.284.284,0,0,1,.334.046,2.282,2.282,0,0,0,1.405.395q1.3-.005,2.607-.005l1.925,0a1.246,1.246,0,0,0,.943-.4,1.24,1.24,0,0,0,.295-.977.376.376,0,0,1,.212-.405,1.188,1.188,0,0,0,.563-1.394.376.376,0,0,1,.16-.464,1.354,1.354,0,0,0,.437-.67l.029-.07v-.374l-.036-.1a1.434,1.434,0,0,0-.293-.557.265.265,0,0,1-.016-.367l.01-.015a1.273,1.273,0,0,0,.026-1.284,1.278,1.278,0,0,0-1.138-.6c-.837,0-1.809-.007-2.762,0a.393.393,0,0,1-.322-.112.393.393,0,0,1-.061-.336q.021-.128.043-.257c.058-.337.117-.685.142-1.026a2.992,2.992,0,0,0-.8-2.29,1.814,1.814,0,0,0-.711-.441h-.458c-.047.021-.094.041-.141.061a1.327,1.327,0,0,0-.374.2c-.038.034-.038.038-.035.068.031.358.059.716.087,1.074.021.272.042.543.065.815a1.153,1.153,0,0,1-.141.664q-.4.74-.8,1.481l-.8,1.476c0,.007-.007.015-.01.022a.318.318,0,0,1-.262.217.19.19,0,0,1-.194-.112c-.129-.291-.209-.342-.533-.342l-.833,0c-.671,0-1.364,0-2.047-.008a.624.624,0,0,0-.621.265v6.344A.594.594,0,0,0-79.294,585.578Zm3.928-.466Zm4.546-7.976Zm-8.173,8.248a.37.37,0,0,1-.275-.1.412.412,0,0,1-.1-.313q0-1.081,0-2.162v-.691h0V581.4c0-.69,0-1.4,0-2.1a.409.409,0,0,1,.1-.31.409.409,0,0,1,.3-.1c.865.007,1.791.008,2.829,0a.417.417,0,0,1,.312.1.408.408,0,0,1,.1.3c0,1.743,0,3.618,0,5.73a.374.374,0,0,1-.094.276.369.369,0,0,1-.275.093c-.791,0-1.836-.007-2.9,0Zm.013-.336h0Zm0-5.785c0,.007,0,.016,0,.025.005.7,0,1.416,0,2.107v.726h0v.691q0,1.082,0,2.164c0,.01,0,.019,0,.027,1.055-.008,2.093,0,2.882,0,0-2.108,0-3.979,0-5.719,0-.008,0-.014,0-.02h-.031c-1.04.007-1.968.006-2.835,0Zm7.581,5.756c-.822,0-1.691,0-2.619-.007a1.73,1.73,0,0,1-.978-.341.686.686,0,0,1-.078-.065l-.031-.028c-.465-.123-.462-.512-.461-.771v-.027c.005-1,.006-2.015.007-3v-.906a.345.345,0,0,1,.159-.336,2.151,2.151,0,0,0,.737-.953c.043-.083.085-.166.13-.248q.331-.607.658-1.217.3-.558.6-1.114a1.286,1.286,0,0,0,.14-.736q-.016-.229-.032-.457c-.024-.36-.05-.732-.082-1.1a.369.369,0,0,1,.316-.437.9.9,0,0,1,.791.137,2.629,2.629,0,0,1,1,2.474c-.047.474-.13.949-.21,1.408q-.036.206-.071.412c1.061-.006,2.2-.007,3.467,0a1.053,1.053,0,0,1,1.1,1.025,1.11,1.11,0,0,1-.48.886,1.061,1.061,0,0,1,.6,1.076,1.106,1.106,0,0,1-.8.949,1.135,1.135,0,0,1,.172,1.072,1.034,1.034,0,0,1-.884.687,1.232,1.232,0,0,1,.134.374,1.082,1.082,0,0,1-.239.875,1,1,0,0,1-.755.358C-69.84,585.017-70.6,585.02-71.405,585.02Zm-3.779-5.169c0,.006,0,.012,0,.018v.914c0,.983,0,2-.007,3v.028c0,.288.015.36.184.4a.426.426,0,0,1,.186.115.468.468,0,0,0,.036.031,1.343,1.343,0,0,0,.763.274c1.834.009,3.44.009,4.907,0a.609.609,0,0,0,.467-.223.7.7,0,0,0,.155-.568,1.252,1.252,0,0,0-.177-.4l-.048-.084a.19.19,0,0,1,0-.178.191.191,0,0,1,.145-.1c.436-.057.73-.121.849-.474a.854.854,0,0,0-.281-.922.19.19,0,0,1-.044-.187.191.191,0,0,1,.142-.13c.279-.059.752-.227.788-.69.021-.268-.034-.6-.647-.824a.19.19,0,0,1-.123-.15.191.191,0,0,1,.073-.18l.084-.062c.047-.034.087-.064.122-.094.249-.212.382-.372.375-.609a.669.669,0,0,0-.722-.656c-1.277,0-2.415,0-3.479,0a.379.379,0,0,1-.306-.109.37.37,0,0,1-.059-.314c.024-.145.05-.289.075-.434.079-.452.161-.92.207-1.38a2.242,2.242,0,0,0-.856-2.138.521.521,0,0,0-.477-.064l-.017,0a.247.247,0,0,0,0,.027c.033.368.058.742.083,1.1q.016.228.032.456a1.669,1.669,0,0,1-.185.945q-.3.555-.6,1.113-.328.61-.659,1.219c-.043.079-.084.159-.126.24A2.513,2.513,0,0,1-75.184,579.851Zm3.688-2.141Z" transform="translate(79.939 -572.678)" fill="#65696a"/>
      </g>
    </g>
  </g>
</svg>
