<svg width="91" height="91" viewBox="0 0 91 91" fill="none" xmlns="http://www.w3.org/2000/svg">
<path fill-rule="evenodd" clip-rule="evenodd" d="M21.5979 42.6859C26.0909 30.0063 33.0395 18.5066 38.6876 6.45912C39.7457 4.20241 42.0398 4.24663 43.3497 6.44392C45.2986 9.71051 47.1667 13.0234 49.1783 16.5062C49.6064 15.9336 49.95 15.5087 50.2526 15.0604C51.0166 13.9283 51.5723 12.5164 53.37 12.6711C55.1426 12.8217 55.4887 14.2958 56.0765 15.5143C58.8363 21.231 61.6644 26.92 64.3149 32.6844C65.8066 35.9275 67.0017 39.2977 68.4076 42.8026C70.3416 42.0663 72.6609 41.084 75.0498 40.2952C79.2505 38.9081 83.689 40.892 85.278 44.7588C86.8222 48.5166 85.0321 52.8414 81.0542 54.569C77.5971 56.07 74.0638 57.4129 70.5413 58.7743C68.7048 59.4837 67.2531 59.0444 66.7768 57.6539C66.2159 56.0182 67.1353 55.0746 68.6249 54.4826C71.6323 53.2883 74.6422 52.1002 77.6453 50.8955C78.2688 50.6448 78.9188 50.4086 79.4672 50.0432C80.907 49.0823 81.3265 47.2711 80.3884 45.9014C79.4225 44.4874 78.0677 43.9431 76.3464 44.6276C73.7804 45.6499 71.2079 46.6563 68.6688 47.736C68.1831 47.9432 67.662 48.3832 67.4592 48.8398C65.9598 52.2045 64.5368 55.6016 63.0063 59.1839C64.7084 59.8781 66.9211 60.7913 69.1431 61.6845C72.9588 63.2159 76.7968 64.6989 80.595 66.2697C85.001 68.0906 86.949 72.519 85.1973 76.5613C83.4576 80.5753 78.7694 82.3713 74.3101 80.5967C52.7003 71.9982 31.1017 63.3761 9.51377 54.7286C5.06853 52.9478 3.13712 48.5518 4.86318 44.4722C6.57946 40.4147 11.1639 38.6678 15.7014 40.3712C17.7779 41.1497 19.8295 41.9903 21.5979 42.6859V42.6859ZM41.1209 12.413C40.7018 13.1964 40.3864 13.749 40.1059 14.3168C36.4549 21.712 32.8522 29.128 29.1445 36.4963C27.2822 40.1953 26.5989 43.9827 27.4355 48.0333C29.3207 57.1596 38.8349 63.1899 48.5675 61.3891C57.8846 59.665 64.466 50.6658 62.58 41.7875C61.97 38.9146 60.5419 36.1778 59.3012 33.4583C57.278 29.0237 55.1017 24.6526 52.8849 20.0355C52.4102 20.6558 52.0842 21.0482 51.7973 21.4647C49.799 24.3645 48.0708 24.3176 46.3021 21.2976C44.6131 18.415 42.9358 15.5249 41.1209 12.413ZM75.1143 69.1099C70.0215 67.0639 64.6522 64.8853 59.2559 62.7688C58.777 62.5823 58.0464 62.6444 57.5636 62.86C55.3092 63.8643 53.1004 64.9647 50.7601 66.0851C58.0275 68.9904 65.3192 71.9068 72.2691 74.6871C73.258 72.7495 74.1454 71.0088 75.1143 69.1099H75.1143ZM24.9428 55.908C24.0964 53.3618 23.3333 50.9787 22.4899 48.6232C22.3619 48.2647 21.9111 47.9159 21.5227 47.7542C18.8585 46.6456 16.1913 45.5362 13.4845 44.5291C11.7713 43.8888 10.128 44.5643 9.38533 46.0322C8.60299 47.5802 9.1087 49.4321 10.831 50.1671C15.4888 52.1585 20.2162 53.9987 24.9428 55.908Z" fill="#476572"/>
<path d="M14.8924 69.742C15.4834 71.7053 16.0131 73.4638 16.5747 75.3305C20.9734 73.5354 25.7554 71.5823 30.5388 69.6337C31.3874 69.2872 32.2436 68.6907 33.0941 68.6938C33.982 68.6976 35.1953 69.0473 35.6759 69.6766C36.3798 70.5994 36.0114 71.7551 34.902 72.4568C34.6471 72.618 34.3576 72.731 34.0754 72.8462C27.686 75.459 21.3228 78.1357 14.8959 80.6581C10.2838 82.4664 5.84811 80.2002 4.73394 75.6545C3.95761 72.4849 5.4995 69.0598 8.5848 67.6689C11.9225 66.1658 15.3587 64.8699 18.7622 63.5071C20.0431 62.9938 21.1518 63.3583 21.6891 64.5709C22.2686 65.8777 21.6977 66.9259 20.3692 67.4929C18.461 68.3067 16.5312 69.0723 14.8925 69.742H14.8924Z" fill="#476572"/>
<path d="M37.8772 39.5947C39.0509 41.4441 40.0366 42.9987 41.2002 44.8326C43.6487 40.4449 45.9777 36.2713 48.4827 31.7812C50.285 35.6864 52.2106 39.2456 53.5843 43.008C54.9407 46.7208 53.1151 50.82 49.7338 52.9207C46.3559 55.0184 42.0859 54.6646 39.0814 52.0379C36.1174 49.4469 35.1974 45.1585 36.8493 41.5776C37.1167 41.0004 37.4347 40.4449 37.8772 39.5947V39.5947Z" fill="#476572"/>
</svg>
