<svg version="1.1" fill="#00CFFF" xmlns="http://www.w3.org/2000/svg" xmlns:xlink="http://www.w3.org/1999/xlink" x="0px" y="0px"
	 viewBox="0 0 12 16" style="enable-background:new 0 0 12 16;" xml:space="preserve">
    <g transform="translate(4.451 9.689)">
      <g transform="translate(0)">
        <path d="M7.6-6.9C7.6-6.9,7.6-6.9,7.6-6.9C7.6-6.9,7.6-6.9,7.6-6.9c0-0.1,0-0.1,0-0.1c0,0,0-0.1,0-0.1v0
          c0-0.3-0.1-0.5-0.2-0.8l0,0c0,0,0-0.1,0-0.1s0-0.1,0-0.1l0,0c-0.5-1-1.4-1.6-2.5-1.5h-6.5c-1.5,0-2.8,1.2-2.8,2.8
          c0,1.3,0.9,2.4,2.1,2.7C-3.3-3.7-4-2.7-4-1.6v3.7c0,0.1,0,0.1,0.1,0.1c0,0,0.1,0,0.1,0C-2.6,0,1.5-2.6,5.8-4.3l0,0
          c1-0.4,1.8-1.4,1.8-2.5C7.6-6.8,7.6-6.9,7.6-6.9z M4.8-5.7H4.6c-0.7-0.1-1.1-0.8-1-1.5s0.8-1.1,1.5-1C5.6-8,6-7.6,6.1-7
          c0,0,0,0.1,0,0.1c0,0,0,0,0,0l0,0C6-6.2,5.5-5.6,4.8-5.7L4.8-5.7z M-2.9-6.9c0-0.7,0.5-1.3,1.2-1.3c0,0,0,0,0,0h4
          c-0.4,0.8-0.4,1.7,0,2.5h-3.9C-2.3-5.6-2.9-6.2-2.9-6.9L-2.9-6.9z"/>
        <path d="M6.3-3.2C-1-0.1-5.4,6.2,1.2,6.3c0.2,0,0.3,0,0.5,0H4c1.6,0,2.8-1.3,2.8-2.8l0,0v-5.2
          c0-0.5-0.1-1-0.4-1.4C6.4-3.2,6.3-3.2,6.3-3.2z"/>
      </g>
    </g>
  </svg>