<svg width="81" height="81" viewBox="0 0 81 81" fill="none" xmlns="http://www.w3.org/2000/svg">
<path fill-rule="evenodd" clip-rule="evenodd" d="M7.19336 23.5469C7.19336 18.024 11.6705 13.5469 17.1934 13.5469H63.86C69.3829 13.5469 73.86 18.024 73.86 23.5469V33.5469C73.86 35.3878 72.3676 36.8802 70.5267 36.8802C68.6857 36.8802 67.1934 38.3726 67.1934 40.2135C67.1934 42.0545 68.6857 43.5469 70.5267 43.5469C72.3676 43.5469 73.86 45.0393 73.86 46.8802V56.8802C73.86 62.4031 69.3829 66.8802 63.86 66.8802H17.1934C11.6705 66.8802 7.19336 62.4031 7.19336 56.8802V46.8802C7.19336 45.0393 8.68574 43.5469 10.5267 43.5469C12.3676 43.5469 13.86 42.0545 13.86 40.2135C13.86 38.3726 12.3676 36.8802 10.5267 36.8802C8.68574 36.8802 7.19336 35.3878 7.19336 33.5469V23.5469ZM53.86 60.2135V56.8802C53.86 55.0393 52.3676 53.5469 50.5267 53.5469C48.6857 53.5469 47.1934 55.0393 47.1934 56.8802V60.2135H17.1934C15.3524 60.2135 13.86 58.7212 13.86 56.8802V49.6445C17.744 48.2717 20.5267 44.5676 20.5267 40.2135C20.5267 35.8595 17.744 32.1553 13.86 30.7826V23.5469C13.86 21.7059 15.3524 20.2135 17.1934 20.2135H47.1934V23.5469C47.1934 25.3878 48.6857 26.8802 50.5267 26.8802C52.3676 26.8802 53.86 25.3878 53.86 23.5469V20.2135H63.86C65.701 20.2135 67.1934 21.7059 67.1934 23.5469V30.7826C63.3094 32.1553 60.5267 35.8595 60.5267 40.2135C60.5267 44.5676 63.3094 48.2717 67.1934 49.6445V56.8802C67.1934 58.7212 65.701 60.2135 63.86 60.2135H53.86ZM50.5267 33.5469C52.3676 33.5469 53.86 35.0393 53.86 36.8802V43.5469C53.86 45.3878 52.3676 46.8802 50.5267 46.8802C48.6857 46.8802 47.1934 45.3878 47.1934 43.5469V36.8802C47.1934 35.0393 48.6857 33.5469 50.5267 33.5469Z" fill="#476572"/>
</svg>
