<svg width="81" height="81" viewBox="0 0 81 81" fill="none" xmlns="http://www.w3.org/2000/svg">
<path fill-rule="evenodd" clip-rule="evenodd" d="M40.0267 13.5495C25.2991 13.5495 13.36 25.4886 13.36 40.2161C13.36 54.9437 25.2991 66.8828 40.0267 66.8828C54.7543 66.8828 66.6934 54.9437 66.6934 40.2161C66.6934 25.4886 54.7543 13.5495 40.0267 13.5495ZM6.69336 40.2161C6.69336 21.8067 21.6172 6.88281 40.0267 6.88281C58.4362 6.88281 73.36 21.8067 73.36 40.2161C73.36 58.6256 58.4362 73.5495 40.0267 73.5495C21.6172 73.5495 6.69336 58.6256 6.69336 40.2161ZM40.0267 23.5495C41.8676 23.5495 43.36 25.0419 43.36 26.8828V38.8354L52.3837 47.8591C53.6855 49.1609 53.6855 51.2714 52.3837 52.5732C51.082 53.8749 48.9714 53.8749 47.6697 52.5732L37.6697 42.5732C37.0446 41.948 36.6934 41.1002 36.6934 40.2161V26.8828C36.6934 25.0419 38.1857 23.5495 40.0267 23.5495Z" fill="#476572"/>
</svg>
